<?xml version="1.0" encoding="UTF-8"?>
<svg xmlns="http://www.w3.org/2000/svg" xmlns:xlink="http://www.w3.org/1999/xlink" viewBox="0 0 128 128" width="128px" height="128px">
<g id="surface120593865">
<rect x="0" y="0" width="128" height="128" style="fill:rgb(2.352941%,2.352941%,12.54902%);fill-opacity:1;stroke:none;"/>
<path style=" stroke:none;fill-rule:nonzero;fill:rgb(100%,100%,100%);fill-opacity:1;" d="M 28 8 C 17 8 8 17 8 28 L 8 92 C 8 103 17 112 28 112 L 92 112 C 103 112 112 103 112 92 L 112 28 C 112 17 103 8 92 8 Z M 28 16 L 92 16 C 98.679688 16 104 21.320312 104 28 L 104 92 C 104 98.679688 98.679688 104 92 104 L 79.234375 104 L 79.234375 71.734375 L 90.40625 71.734375 L 92.078125 58.859375 L 79.234375 58.859375 L 79.234375 50.65625 C 79.234375 46.929688 80.273438 44.390625 85.65625 44.390625 L 92.53125 44.390625 L 92.53125 32.875 C 91.339844 32.714844 87.257812 32.375 82.515625 32.375 C 72.613281 32.375 65.84375 38.367188 65.84375 49.375 L 65.84375 58.859375 L 56 58.828125 L 56 71.703125 L 65.84375 71.734375 L 65.84375 104 L 28 104 C 21.320312 104 16 98.679688 16 92 L 16 28 C 16 21.320312 21.320312 16 28 16 Z M 28 16 "/>
</g>
</svg>
