<?xml version="1.0" encoding="UTF-8"?>
<svg xmlns="http://www.w3.org/2000/svg" xmlns:xlink="http://www.w3.org/1999/xlink" viewBox="0 0 128 128" width="128px" height="128px">
<g id="surface120805704">
<rect x="0" y="0" width="128" height="128" style="fill:rgb(2.352941%,2.352941%,12.54902%);fill-opacity:1;stroke:none;"/>
<path style=" stroke:none;fill-rule:nonzero;fill:rgb(100%,100%,100%);fill-opacity:1;" d="M 38.1875 8 C 21.5625 8 8 21.5625 8 38.1875 L 8 81.84375 C 8 98.4375 21.5625 112 38.1875 112 L 81.84375 112 C 98.4375 112 112 98.4375 112 81.8125 L 112 38.1875 C 112 21.5625 98.4375 8 81.8125 8 Z M 38.1875 16 L 81.8125 16 C 94.125 16 104 25.875 104 38.1875 L 104 81.8125 C 104 94.125 94.125 104 81.84375 104 L 38.1875 104 C 25.875 104 16 94.125 16 81.84375 L 16 38.1875 C 16 25.875 25.875 16 38.1875 16 Z M 92 24 C 89.78125 24 88 25.78125 88 28 C 88 30.21875 89.78125 32 92 32 C 94.21875 32 96 30.21875 96 28 C 96 25.78125 94.21875 24 92 24 Z M 60 32 C 44.59375 32 32 44.59375 32 60 C 32 75.40625 44.59375 88 60 88 C 75.40625 88 88 75.40625 88 60 C 88 44.59375 75.40625 32 60 32 Z M 60 40 C 71.09375 40 80 48.90625 80 60 C 80 71.09375 71.09375 80 60 80 C 48.90625 80 40 71.09375 40 60 C 40 48.90625 48.90625 40 60 40 Z M 60 40 "/>
</g>
</svg>
