<?xml version="1.0" encoding="UTF-8"?>
<svg xmlns="http://www.w3.org/2000/svg" xmlns:xlink="http://www.w3.org/1999/xlink" viewBox="0 0 128 128" width="128px" height="128px">
<g id="surface120665944">
<rect x="0" y="0" width="128" height="128" style="fill:rgb(2.352941%,2.352941%,12.54902%);fill-opacity:1;stroke:none;"/>
<path style=" stroke:none;fill-rule:nonzero;fill:rgb(100%,100%,100%);fill-opacity:1;" d="M 22.0625 8 C 14.34375 8 8 14.34375 8 22.0625 L 8 97.96875 C 8 105.65625 14.34375 112 22.0625 112 L 97.96875 112 C 105.65625 112 112 105.65625 112 97.96875 L 112 22.0625 C 112 14.34375 105.65625 8 97.96875 8 Z M 22.0625 16 L 97.96875 16 C 101.34375 16 104 18.65625 104 22.0625 L 104 97.96875 C 104 101.34375 101.34375 104 97.96875 104 L 22.0625 104 C 18.65625 104 16 101.34375 16 97.96875 L 16 22.0625 C 16 18.65625 18.65625 16 22.0625 16 Z M 32 24 C 27.59375 24 24 27.59375 24 32 C 24 36.40625 27.59375 40 32 40 C 36.40625 40 40 36.40625 40 32 C 40 27.59375 36.40625 24 32 24 Z M 24 48 L 24 96 L 40 96 L 40 48 Z M 48 48 L 48 96 L 64 96 L 64 74.5625 C 64 67.90625 64.625 61.9375 72.625 61.9375 C 80.5 61.9375 80 69.09375 80 75 L 80 96 L 96 96 L 96 72.3125 C 96 58.5625 93.125 48 77.53125 48 C 70.03125 48 66.25 51 64.1875 55 L 64 55 L 64 48 Z M 48 48 "/>
</g>
</svg>
