<?xml version="1.0" encoding="UTF-8"?>
<svg width="80px" height="80px" viewBox="0 0 80 80" version="1.1" xmlns="http://www.w3.org/2000/svg" xmlns:xlink="http://www.w3.org/1999/xlink">
    <title>Logo</title>
    <g id="Logo" stroke="none" stroke-width="1" fill="none" fill-rule="evenodd">
        <path d="M25.638852,-1.03584031e-15 L40,0 L40,0 L40,80 L25.638852,80 C16.7236646,80 13.4908022,79.0717439 10.231543,77.328673 C6.97228371,75.585602 4.41439796,73.0277163 2.67132704,69.768457 C0.928256111,66.5091978 4.01235366e-16,63.2763354 -6.90560205e-16,54.361148 L6.90560205e-16,25.638852 C-4.01235366e-16,16.7236646 0.928256111,13.4908022 2.67132704,10.231543 C4.41439796,6.97228371 6.97228371,4.41439796 10.231543,2.67132704 C13.4908022,0.928256111 16.7236646,6.01853049e-16 25.638852,-1.03584031e-15 Z" id="Rectangle" fill="#007AFF"></path>
        <path d="M40,0 L54.361148,1.03584031e-15 C63.2763354,-6.01853049e-16 66.5091978,0.928256111 69.768457,2.67132704 C73.0277163,4.41439796 75.585602,6.97228371 77.328673,10.231543 C79.0717439,13.4908022 80,16.7236646 80,25.638852 L80,54.361148 C80,63.2763354 79.0717439,66.5091978 77.328673,69.768457 C75.585602,73.0277163 73.0277163,75.585602 69.768457,77.328673 C66.5091978,79.0717439 63.2763354,80 54.361148,80 L40,80 L40,80 L40,0 Z" id="Rectangle" fill="#FFFFFF"></path>
        <circle id="Oval" fill="#FFFFFF" cx="20" cy="25" r="10"></circle>
        <circle id="Oval" fill="#007AFF" cx="60" cy="25" r="10"></circle>
        <path d="M20,45 L30,45 L30,55 L40,55 L40,65 L20,65 L20,45 Z" id="Combined-Shape" fill="#FFFFFF"></path>
        <path d="M50,55 L50,45 L60,45 L60,65 L40,65 L40,55 L50,55 Z" id="Combined-Shape" fill="#007AFF"></path>
    </g>
</svg>