<?xml version="1.0" standalone="no"?>
<!DOCTYPE svg PUBLIC "-//W3C//DTD SVG 20010904//EN"
 "http://www.w3.org/TR/2001/REC-SVG-20010904/DTD/svg10.dtd">
<svg version="1.0" xmlns="http://www.w3.org/2000/svg"
 width="700.000000pt" height="700.000000pt" viewBox="0 0 700.000000 700.000000"
 preserveAspectRatio="xMidYMid meet">
<metadata>
Created by potrace 1.14, written by Peter Selinger 2001-2017
</metadata>
<g transform="translate(0.000000,700.000000) scale(0.100000,-0.100000)"
fill="#000000" stroke="none">
<path d="M1899 6996 c-2 -2 -53 -6 -114 -10 -60 -3 -128 -8 -150 -11 -22 -2
-64 -7 -94 -11 -285 -32 -558 -130 -788 -284 -365 -244 -633 -666 -699 -1100
-3 -19 -7 -41 -9 -47 -2 -7 -7 -45 -11 -85 -3 -40 -8 -75 -9 -78 -20 -33 -31
-3310 -12 -3594 29 -441 120 -746 306 -1022 276 -408 717 -664 1236 -719 28
-3 59 -7 70 -10 138 -28 3694 -29 3744 -1 3 2 40 7 80 10 41 4 77 9 80 11 4 1
26 6 51 9 197 27 493 143 660 261 263 184 448 402 577 681 70 153 129 372 148
554 4 36 9 74 11 85 15 73 19 454 19 1870 0 1434 -3 1720 -19 1860 -3 22 -7
63 -11 90 -16 142 -54 307 -102 435 -175 470 -535 821 -1017 989 -85 30 -279
74 -376 85 -66 7 -148 16 -210 23 -59 6 -3354 15 -3361 9z"/>
</g>
</svg>
